<?xml version="1.0" encoding="UTF-8"?>
<svg width="16px" height="19px" viewBox="0 0 16 19" version="1.1" xmlns="http://www.w3.org/2000/svg" xmlns:xlink="http://www.w3.org/1999/xlink">
    <title>apple_ic</title>
    <g id="Page-1" stroke="none" stroke-width="1" fill="none" fill-rule="evenodd">
        <g id="MKB_01" transform="translate(-161.000000, -998.000000)" fill="#FF106C" fill-rule="nonzero">
            <g id="Group-19" transform="translate(145.000000, 985.000000)">
                <g id="apple_ic" transform="translate(16.000000, 13.000000)">
                    <g id="apple" transform="translate(0.000000, 0.000000)">
                        <path d="M11.511401,1.1235457e-13 C10.5127638,0.0663745463 9.34554073,0.680620347 8.66534354,1.48048988 C8.04485385,2.20610992 7.53441327,3.28385255 7.73343827,4.33122039 C8.82456354,4.36384517 9.9519816,3.73497447 10.6052519,2.92160503 C11.2163757,2.1644852 11.6788161,1.09349252 11.511401,1.1235457e-13 Z" id="Path"></path>
                        <path d="M15.4579496,6.03895872 C14.4991174,4.88359161 13.1516011,4.2130962 11.8790119,4.2130962 C10.1990067,4.2130962 9.48837044,4.98596591 8.32114737,4.98596591 C7.11763152,4.98596591 6.20328727,4.21534618 4.7504048,4.21534618 C3.32327851,4.21534618 1.80366413,5.05346545 0.840149005,6.48670566 C-0.514391701,8.50494186 -0.282586118,12.2995409 1.91254251,15.5316438 C2.69810588,16.6881359 3.74708468,17.988627 5.11918641,18 C6.3402633,18.0111269 6.68445947,17.2472571 8.3387084,17.2393821 C9.99295734,17.2303822 10.3067144,18.0100019 11.5254498,17.997627 C12.8987223,17.987502 14.0050671,16.5463869 14.7906305,15.3898948 C15.3537541,14.5607755 15.5633157,14.1434033 16,13.2074097 C12.8237952,12.0452927 12.3145254,7.70507233 15.4579496,6.03895872 Z" id="Path"></path>
                    </g>
                </g>
            </g>
        </g>
    </g>
</svg>