<?xml version="1.0" encoding="UTF-8"?>
<svg width="162px" height="162px" viewBox="0 0 162 162" version="1.1" xmlns="http://www.w3.org/2000/svg" xmlns:xlink="http://www.w3.org/1999/xlink">
    <title>buttons/yes</title>
    <defs>
        <linearGradient x1="29.3204066%" y1="11.4034262%" x2="76.1624623%" y2="86.2387048%" id="linearGradient-1">
            <stop stop-color="#FF0086" offset="0%"></stop>
            <stop stop-color="#FF1B57" offset="100%"></stop>
        </linearGradient>
        <circle id="path-2" cx="56" cy="56" r="56"></circle>
        <filter x="-39.3%" y="-27.7%" width="178.6%" height="178.6%" filterUnits="objectBoundingBox" id="filter-3">
            <feOffset dx="0" dy="13" in="SourceAlpha" result="shadowOffsetOuter1"></feOffset>
            <feGaussianBlur stdDeviation="12.5" in="shadowOffsetOuter1" result="shadowBlurOuter1"></feGaussianBlur>
            <feColorMatrix values="0 0 0 0 1   0 0 0 0 0.107393293   0 0 0 0 0.342053666  0 0 0 0.25 0" type="matrix" in="shadowBlurOuter1" result="shadowMatrixOuter1"></feColorMatrix>
            <feOffset dx="0" dy="5" in="SourceAlpha" result="shadowOffsetOuter2"></feOffset>
            <feColorMatrix values="0 0 0 0 0.992034376   0 0 0 0 0.874918997   0 0 0 0 0.201391965  0 0 0 1 0" type="matrix" in="shadowOffsetOuter2" result="shadowMatrixOuter2"></feColorMatrix>
            <feMerge>
                <feMergeNode in="shadowMatrixOuter1"></feMergeNode>
                <feMergeNode in="shadowMatrixOuter2"></feMergeNode>
            </feMerge>
        </filter>
    </defs>
    <g id="Page-1" stroke="none" stroke-width="1" fill="none" fill-rule="evenodd">
        <g id="MKB_01" transform="translate(-639.000000, -437.000000)">
            <g id="Group-3" transform="translate(664.000000, 449.000000)">
                <g id="Oval-Copy-3">
                    <use fill="black" fill-opacity="1" filter="url(#filter-3)" xlink:href="#path-2"></use>
                    <use fill="url(#linearGradient-1)" fill-rule="evenodd" xlink:href="#path-2"></use>
                </g>
                <path d="M35.2979836,75.0291262 C36.3853622,75.0291262 37.3960667,74.9287125 38.3300971,74.7278851 C39.2641275,74.5270576 40.330595,74.0651546 41.5294996,73.3421758 C42.7562858,72.6191971 43.8715459,71.668614 44.8752801,70.4904264 C45.8790142,69.3122388 46.8548668,67.6453712 47.8028379,65.4898235 C48.7508091,63.3342758 49.5175504,60.8105445 50.103062,57.9186296 C51.4413742,51.4653749 52.4311675,46.6455167 53.0724421,43.4590549 C53.5743092,40.9420178 53.8252427,38.9739091 53.8252427,37.5547286 L53.8252427,37.5547286 L53.0306199,37.5547286 C50.549166,37.5547286 48.5974608,37.9028295 47.1755041,38.5990312 C46.562111,44.5703 45.4050286,50.9164466 43.7042569,57.6374712 C41.5573811,58.6817738 39.5359721,59.2039251 37.6400299,59.2039251 C36.6362957,59.2039251 36.1344287,58.4943348 36.1344287,57.0751544 C36.1344287,56.3789526 36.6641772,53.8284443 37.7236744,49.4236294 C38.7831715,45.0188146 39.3129201,42.1335939 39.3129201,40.7679674 C39.3129201,39.4023409 39.1177496,38.3178728 38.7274085,37.5145631 C35.2422206,37.5145631 32.6631815,37.7421675 30.9902913,38.1973764 L30.9902913,38.1973764 L30.8648245,38.7998586 L31.2830471,39.3621754 C32.1194922,40.486809 32.5377147,41.4909461 32.5377147,42.3745868 C32.5377147,43.7402133 32.0079661,46.464772 30.948469,50.548263 C29.8889719,54.631754 29.3592233,57.4567265 29.3592233,59.0231804 C29.3592233,60.5896343 29.8053274,61.7945989 30.6975355,62.6380741 C31.5897436,63.4815492 32.7189445,63.9032868 34.0851382,63.9032868 C36.3714215,63.9032868 39.2850386,62.8857612 42.8259895,60.85071 C42.686582,61.3862498 42.46353,62.1360055 42.1568335,63.0999771 C41.8501369,64.0639488 41.6828479,64.5994886 41.6549664,64.7065965 L41.6549664,64.7065965 L40.5675878,64.907424 C38.8946975,65.2287478 37.0405775,65.8981726 35.0052278,66.9156982 C34.0014937,67.397684 33.1441374,68.0537203 32.4331591,68.883807 C31.7221807,69.7138937 31.3666916,70.6376998 31.3666916,71.6552255 C31.3666916,72.6727511 31.7500622,73.4894493 32.5168036,74.1053201 C33.2835449,74.7211908 34.2106049,75.0291262 35.2979836,75.0291262 Z M34.9585603,72.3106796 C34.6137817,72.3106796 34.3192833,72.1921832 34.0750651,71.9551904 C33.8308469,71.7181977 33.7087379,71.4324122 33.7087379,71.0978342 C33.7087379,70.1777446 34.5491357,69.2785661 36.2299313,68.4002987 C37.910727,67.5220314 39.4263162,67.0131939 40.776699,66.8737864 C40.0871418,68.3515061 39.1964638,69.6270849 38.1046649,70.7005228 C37.0128661,71.7739607 35.9641645,72.3106796 34.9585603,72.3106796 Z M60.5188837,66.3300971 C62.4175266,66.3300971 64.1648283,65.9094847 65.7607889,65.0682599 C66.3386367,64.7528006 66.9577594,64.3584765 67.6181569,63.8852875 C68.2785544,63.4120986 68.7188194,63.0309186 68.9389519,62.7417476 L68.9389519,62.7417476 L67.9483556,61.4799104 L67.329233,61.9530993 C66.9164845,62.2685586 66.3386367,62.5840179 65.5956895,62.8994772 C64.8527423,63.2149365 64.15107,63.3726662 63.4906725,63.3726662 C61.5645131,63.3726662 60.5051255,62.1371173 60.3125095,59.6660194 L60.3125095,59.6660194 L61.3031058,59.5477222 C62.926583,59.3111277 64.7151595,58.7327857 66.6688355,57.812696 C67.6319151,57.3395071 68.4505329,56.6691561 69.1246887,55.801643 C69.7988444,54.9341299 70.1359223,53.8628827 70.1359223,52.5879014 C70.1359223,51.3129201 69.6131076,50.2942494 68.5674783,49.5318895 C67.5218489,48.7695295 66.1872956,48.3883495 64.5638184,48.3883495 C61.9222284,48.3883495 59.5626832,49.3412995 57.4851827,51.2471994 C55.4076823,53.1530993 54.368932,55.7490665 54.368932,59.0351008 C54.368932,61.3221807 54.9192633,63.1097834 56.0199258,64.3979089 C57.1205883,65.6860344 58.6202409,66.3300971 60.5188837,66.3300971 Z M60.3495146,58.1747573 C60.3495146,56.6387125 60.6172775,54.9860929 61.1528033,53.2168985 C61.6883291,51.447704 62.452433,50.5631068 63.445115,50.5631068 C64.2810578,50.5631068 64.6990291,51.3036998 64.6990291,52.7848859 C64.6990291,54.2660719 64.307181,55.4729642 63.5234846,56.4055628 C62.7397883,57.3381615 61.6817983,57.9278929 60.3495146,58.1747573 Z M76.0711974,66.3300971 C78.0625674,66.3300971 79.8365696,65.8043316 81.3932039,64.7528006 C82.9498382,63.7012696 83.7281553,62.3474235 83.7281553,60.6912621 C83.7281553,59.9551904 83.4757282,59.1665422 82.9708738,58.3253174 C82.4660194,57.4840926 82.0593312,56.9123226 81.7508091,56.6100075 C81.4422869,56.3076923 81.1898598,56.0645258 80.9935275,55.8805078 C82.7044229,54.0929052 83.5598706,52.6930545 83.5598706,51.6809559 C83.5598706,50.6688574 83.1111111,49.867065 82.2135922,49.2755788 C81.3160734,48.6840926 79.9768069,48.3883495 78.1957929,48.3883495 C76.4147789,48.3883495 74.8932039,48.7498133 73.631068,49.4727409 C72.368932,50.1956684 71.7378641,51.2143391 71.7378641,52.5287528 C71.7378641,53.8431665 72.8737864,55.611053 75.1456311,57.8324122 C77.4174757,60.0537715 78.5533981,61.7690814 78.5533981,62.978342 C78.5533981,63.8195668 78.03452,64.2796117 76.9967638,64.3584765 C76.0992449,62.2554145 74.9492988,60.7175504 73.5469256,59.7448842 C72.8737864,59.9289022 72.0463862,60.4349515 71.0647249,61.2630321 C70.0830636,62.0911128 69.592233,62.689171 69.592233,63.0572069 C69.592233,63.6618372 70.1742179,64.3584765 71.3381877,65.1471247 C72.5021575,65.935773 74.0798274,66.3300971 76.0711974,66.3300971 Z M79.744689,54.9126214 L79.0987215,54.3791903 C77.8354962,53.2849728 77.2038835,52.4369543 77.2038835,51.8351346 C77.2038835,51.5068694 77.419206,51.2127984 77.849851,50.9529218 C78.280496,50.6930451 78.8259797,50.5631068 79.486302,50.5631068 C80.864366,50.5631068 81.5533981,51.041827 81.5533981,51.9992673 C81.5533981,52.9567076 80.950495,53.9278256 79.744689,54.9126214 L79.744689,54.9126214 Z" id="Yes" fill="#FFFFFF" fill-rule="nonzero"></path>
            </g>
        </g>
    </g>
</svg>