<?xml version="1.0" encoding="UTF-8"?>
<svg width="111px" height="84px" viewBox="0 0 111 84" version="1.1" xmlns="http://www.w3.org/2000/svg" xmlns:xlink="http://www.w3.org/1999/xlink">
    <title>element_03</title>
    <g id="Page-1" stroke="none" stroke-width="1" fill="none" fill-rule="evenodd">
        <g id="MKB_1920" transform="translate(-1270.000000, -1509.000000)" fill-rule="nonzero">
            <g id="element_03" transform="translate(1277.000000, 1512.000000)">
                <g id="Group-22" transform="translate(-0.000000, -0.000000)">
                    <path d="M97.1782609,6.52174846 C92.5109605,0.448688235 84.2529963,-1.67167896 77.1942029,1.39051514 C74.1246377,2.70238849 71.3869565,4.91420123 69.1666667,7.84941023 C66.9463768,4.90702468 64.2086957,2.69521194 61.1391304,1.39051514 C54.080337,-1.67167896 45.8223729,0.448688235 41.1550725,6.52174846 C38.7637681,9.62488872 37.5,13.5030964 37.5,17.7358256 C37.5,23.8272814 41.1681159,30.5100848 48.4014493,37.6062576 C54.2956522,43.386251 61.2608696,48.1199035 64.8869565,50.4264467 C67.4958086,52.0800733 70.8375248,52.0800733 73.4463768,50.4264467 C77.0695652,48.1199035 84.0376812,43.386251 89.9318841,37.6062576 C97.1652174,30.5129554 100.833333,23.8272814 100.833333,17.7358256 C100.833333,13.5030964 99.5695652,9.62488872 97.1782609,6.52174846 Z" id="Path" stroke="#FFFFFF" stroke-width="5"></path>
                    <path d="M41.632955,17.106648 C46.0746502,15.152177 50.8922363,14.8529608 55.3340837,16.0123218 C59.7773854,17.1720623 63.8453453,19.7917034 66.7803957,23.673876 C69.740672,27.5788286 71.3333333,32.4526249 71.3333333,37.7855292 C71.3333333,45.0650129 67.2544557,53.1653662 58.6891888,61.703596 C53.02323,67.3515694 46.4659713,72.1179924 42.193706,74.9852994 L42.193706,74.9852994 L41.5661981,75.4037993 C41.1552479,75.6761509 40.7700773,75.9280446 40.4091398,76.161609 C38.5064772,77.387542 36.3364762,78 34.1666667,78 C31.9968571,78 29.8268561,77.387542 27.9201334,76.1589883 C23.8992402,73.559051 16.1797348,68.2184404 9.64369588,61.7031487 C1.07860135,53.1616353 -3,45.0648558 -3,37.7855292 C-3,32.4526249 -1.40733863,27.5788286 1.55057941,23.676991 C4.48798808,19.7917034 8.55594797,17.1720623 12.9992496,16.0123218 C17.4462541,14.8516148 22.2698702,15.1528738 26.7162399,17.1135534 C29.4367888,18.2924444 31.9536454,20.0516392 34.1694164,22.3229605 C36.3876835,20.0520327 38.9079619,18.2905446 41.632955,17.106648 Z" id="Path" stroke="#EC4276" stroke-width="6" fill="#FFFFFF"></path>
                </g>
            </g>
        </g>
    </g>
</svg>