<?xml version="1.0" encoding="UTF-8"?>
<svg width="102px" height="73px" viewBox="0 0 102 73" version="1.1" xmlns="http://www.w3.org/2000/svg" xmlns:xlink="http://www.w3.org/1999/xlink">
    <title>element_02</title>
    <g id="Page-1" stroke="none" stroke-width="1" fill="none" fill-rule="evenodd">
        <g id="MKB_02" transform="translate(-664.000000, -1484.000000)" fill="#FFFFFF" fill-rule="nonzero">
            <g id="element_02" transform="translate(664.000000, 1484.882812)">
                <g id="couple" transform="translate(0.000000, -0.000000)">
                    <path d="M24.1054688,0 L2.98828125,0 C1.33795313,0 0,1.33795313 0,2.98828125 C0,11.2403203 6.88858594,17.9296875 15.140625,17.9296875 L42.0351563,17.9296875 C42.0351563,8.02732031 34.0078359,0 24.1054688,0 Z" id="Path"></path>
                    <path d="M15.140625,23.90625 C11.9202539,23.90625 8.90368359,23.113957 6.17578125,21.8080781 L6.17578125,23.90625 C6.17578125,33.8086172 14.2031016,41.8359375 24.1054688,41.8359375 C34.0078359,41.8359375 42.0351563,33.8086172 42.0351563,23.90625 L15.140625,23.90625 Z" id="Path"></path>
                    <path d="M77.8945312,0 C71.9333086,0 66.6898711,2.94086719 63.4298555,7.41671484 C64.1799141,8.27614453 63.8278945,7.94245312 64.3187695,8.61461719 C68.2059258,14.4481406 74.7136055,17.9296875 81.7233164,17.9296875 L95.8242187,17.9296875 C95.8242187,8.02732031 87.7968984,0 77.8945312,0 Z" id="Path"></path>
                    <path d="M35.446793,44.8194375 C32.0562891,46.6669922 28.2306914,47.8125 24.1054688,47.8125 C19.9802461,47.8125 16.1546484,46.6669922 12.7641445,44.8194375 C5.31495703,48.8685586 0,56.8663945 0,65.9414063 L0,69.1289063 C0,70.7792344 1.33795313,72.1171875 2.98828125,72.1171875 L45.0234375,72.1171875 C46.6737656,72.1171875 48.0117188,70.7792344 48.0117188,69.1289063 L48.0117188,65.9414063 C48.0117188,56.8663945 42.8959805,48.8685586 35.446793,44.8194375 Z" id="Path"></path>
                    <path d="M89.2358555,44.8194375 C85.8453516,46.6669922 82.0197539,47.8125 77.8945312,47.8125 C73.7693086,47.8125 69.9437109,46.6669922 66.553207,44.8194375 C59.1040195,48.8685586 53.9882812,56.8663945 53.9882812,65.9414063 L53.9882812,69.1289063 C53.9882812,70.7792344 55.3262344,72.1171875 56.9765625,72.1171875 L99.0117188,72.1171875 C100.662047,72.1171875 102,70.7792344 102,69.1289063 L102,65.9414063 C102,56.8663945 96.685043,48.8685586 89.2358555,44.8194375 Z" id="Path"></path>
                    <path d="M81.7233164,23.90625 C73.3891992,23.90625 65.6471602,20.0449922 60.5700703,13.5406992 C60.2124727,14.9527617 59.9648438,16.4066602 59.9648438,17.9296875 C59.9648438,19.1528906 59.9648438,40.5985898 59.9648438,41.9951133 C62.7867773,39.873832 64.389293,39.2538633 66.5599805,38.0131289 C67.9080938,38.6432578 71.8860937,41.8359375 77.8945312,41.8359375 C82.4482734,41.8359375 85.4935312,40.0848047 89.229082,38.0131289 C91.3686914,39.2361328 93.0028828,39.8742305 95.8242188,41.9951133 L95.8242188,23.90625 L81.7233164,23.90625 Z" id="Path"></path>
                </g>
            </g>
        </g>
    </g>
</svg>