<?xml version="1.0" encoding="UTF-8"?>
<svg width="96px" height="70px" viewBox="0 0 96 70" version="1.1" xmlns="http://www.w3.org/2000/svg" xmlns:xlink="http://www.w3.org/1999/xlink">
    <title>element_01</title>
    <g id="Page-1" stroke="none" stroke-width="1" fill="none" fill-rule="evenodd">
        <g id="MKB_1920" transform="translate(-545.000000, -1519.000000)" fill="#FFFFFF" fill-rule="nonzero">
            <g id="element_01" transform="translate(545.000000, 1519.000000)">
                <g id="Group-23" transform="translate(-0.000000, 0.192000)">
                    <path d="M47.7632,0 C65.6192,1.2736 78.3072,13.68 78.3072,29.7152 C78.304,31.1968 77.9072,32.6208 78.0704,34.0736 C88.1152,34.0736 96,41.968 96,51.648 C96,61.3216 88.112,69.216 78.4512,69.216 L21.12,69.216 L21.12,69.216 C9.4656,69.216 -7.10542736e-15,59.7248 -7.10542736e-15,48.0576 C-7.10542736e-15,37.5904 7.9776,29.664 17.9488,27.9776 C18.9312,12.8928 30.592,1.2736 47.7632,0 Z M47.952,16.0092321 C46.1728,16.0384 44.7552,17.488 44.7904,19.2704 L44.7904,43.5328 L41.1968,39.9392 C40.5952,39.3216 39.776,38.9728 38.9088,38.9696 C37.1392,38.9664 35.7056,40.3936 35.7024,42.1632 C35.7024,43.0304 36.0544,43.8656 36.6848,44.4768 L45.7344,53.5264 C46.9888,54.768 49.0016,54.768 50.2464,53.5264 L59.3152,44.4768 C60.5408,43.2 60.4992,41.168 59.2224,39.9424 C57.9808,38.7552 56.0256,38.752 54.784,39.9392 L51.1904,43.5456 L51.1904,19.2704 C51.2256,17.4624 49.7568,15.9904 47.952,16.0092321 Z" id="Combined-Shape"></path>
                </g>
            </g>
        </g>
    </g>
</svg>