<?xml version="1.0" encoding="UTF-8"?>
<svg width="55px" height="52px" viewBox="0 0 55 52" version="1.1" xmlns="http://www.w3.org/2000/svg" xmlns:xlink="http://www.w3.org/1999/xlink">
    <title>logo_ic</title>
    <g id="Page-1" stroke="none" stroke-width="1" fill="none" fill-rule="evenodd" stroke-linecap="round" stroke-linejoin="round">
        <g id="MKB_01" transform="translate(-141.000000, -38.000000)" stroke="#FF106C" stroke-width="4.2">
            <g id="Group-18" transform="translate(144.000000, 34.000000)">
                <g id="logo_ic" transform="translate(0.000000, 7.000000)">
                    <path d="M16.683828,41.2022894 C16.683828,41.2022894 0.697756853,31.5429818 0.0454406101,21.0287868 C-0.606875633,10.5145917 5.9162868,5.91463142 9.83018425,4.60035704 C13.7440817,3.28608266 23.0902021,2.56441519 28.2018855,10.4823266 C33.313569,18.400238 35.2705177,24.3144727 32.6612528,28.9144331 C30.0519878,33.5143934 21.8272959,34.3853061 20.2672441,25.6287471 C18.7069436,16.8721881 20.9474929,11.414113 22.2241929,8.54318018 C23.5006441,5.67224739 27.4946256,0.146666439 33.7345839,0.00315756478 C39.974791,-0.140351309 48.3168426,4.60035704 48.9691588,15.7716893 C49.6214751,26.9430215 39.8367314,39.4286281 28.0950391,46" id="Stroke-1-Copy"></path>
                </g>
            </g>
        </g>
    </g>
</svg>