<?xml version="1.0" encoding="UTF-8"?>
<svg width="25px" height="20px" viewBox="0 0 25 20" version="1.1" xmlns="http://www.w3.org/2000/svg" xmlns:xlink="http://www.w3.org/1999/xlink">
    <title>qoute_01</title>
    <g id="Page-1" stroke="none" stroke-width="1" fill="none" fill-rule="evenodd">
        <g id="MKB_01" transform="translate(-315.000000, -2572.000000)" fill="#101010" fill-rule="nonzero">
            <g id="qoute_01" transform="translate(315.560000, 2572.466000)">
                <g id="Group-17" transform="translate(0.000000, 0.000000)">
                    <path d="M5.4,19.224 C6.984,19.224 8.304,18.696 9.36,17.64 C10.416,16.584 10.944,15.24 10.944,13.608 C10.944,11.592 10.152,10.08 8.568,9.072 L8.568,9.072 L11.952,0 L6.552,0 L1.44,9.144 C0.96,10.056 0.6,10.836 0.36,11.484 C0.12,12.132 1.13686838e-13,12.84 1.13686838e-13,13.608 C1.13686838e-13,15.336 0.528,16.704 1.584,17.712 C2.64,18.72 3.912,19.224 5.4,19.224 Z" id="Path"></path>
                    <path d="M17.856,19.224 C19.44,19.224 20.76,18.696 21.816,17.64 C22.872,16.584 23.4,15.24 23.4,13.608 C23.4,11.592 22.608,10.08 21.024,9.072 L21.024,9.072 L24.408,0 L19.008,0 L13.896,9.144 C13.416,10.056 13.056,10.836 12.816,11.484 C12.576,12.132 12.456,12.84 12.456,13.608 C12.456,15.336 12.984,16.704 14.04,17.712 C15.096,18.72 16.368,19.224 17.856,19.224 Z" id="Path"></path>
                </g>
            </g>
        </g>
    </g>
</svg>