<?xml version="1.0" encoding="UTF-8"?>
<svg width="26px" height="20px" viewBox="0 0 26 20" version="1.1" xmlns="http://www.w3.org/2000/svg" xmlns:xlink="http://www.w3.org/1999/xlink">
    <title>quote_02</title>
    <g id="Page-1" stroke="none" stroke-width="1" fill="none" fill-rule="evenodd">
        <g id="MKB_01" transform="translate(-1064.000000, -2622.000000)" fill="#101010" fill-rule="nonzero">
            <g id="quote_02" transform="translate(1064.968000, 2622.466000)">
                <g id="Group-12" transform="translate(0.000000, 0.000000)">
                    <path d="M5.4,19.224 L10.512,10.08 C10.992,9.168 11.352,8.388 11.592,7.74 C11.832,7.092 11.952,6.384 11.952,5.616 C11.952,3.888 11.424,2.52 10.368,1.512 C9.312,0.504 8.04,0 6.552,0 C4.968,0 3.648,0.528 2.592,1.584 C1.536,2.64 1.008,3.984 1.008,5.616 C1.008,7.632 1.8,9.144 3.384,10.152 L3.384,10.152 L1.13686838e-13,19.224 L5.4,19.224 Z" id="Path"></path>
                    <path d="M17.856,19.224 L22.968,10.08 C23.448,9.168 23.808,8.388 24.048,7.74 C24.288,7.092 24.408,6.384 24.408,5.616 C24.408,3.888 23.88,2.52 22.824,1.512 C21.768,0.504 20.496,0 19.008,0 C17.424,0 16.104,0.528 15.048,1.584 C13.992,2.64 13.464,3.984 13.464,5.616 C13.464,7.632 14.256,9.144 15.84,10.152 L15.84,10.152 L12.456,19.224 L17.856,19.224 Z" id="Path"></path>
                </g>
            </g>
        </g>
    </g>
</svg>