<?xml version="1.0" encoding="UTF-8"?>
<svg width="235px" height="259px" viewBox="0 0 235 259" version="1.1" xmlns="http://www.w3.org/2000/svg" xmlns:xlink="http://www.w3.org/1999/xlink">
    <title>top_blond</title>
    <defs>
        <polygon id="path-1" points="0 6.05714039e-15 95.9252716 6.05714039e-15 95.9252716 227.399383 0 227.399383"></polygon>
        <path d="M64.5850285,3.95589613 C58.8127037,7.18266157 50.0219014,17.325304 41.2552662,19.9074407 L41.2552662,19.9074407 C30.8609733,22.9688238 22.371052,24.8109653 16.2603871,30.9240742 L16.2603871,30.9240742 C5.75734193,41.431282 2.2555213,62.4022394 2.16489447,67.5665128 L2.16489447,67.5665128 C1.89059727,82.9458587 -2.15740104,106.104208 1.56675741,124.641511 L1.56675741,124.641511 C13.2117006,182.614644 54.695829,228.425538 111.286845,218.942011 L111.286845,218.942011 C167.875445,209.458483 163.846781,162.008251 180.222444,104.877723 L180.222444,104.877723 C186.980789,81.2992788 162.803968,39.4611805 133.984637,18.5626533 L133.984637,18.5626533 C125.093541,12.1163654 108.478622,12.3843572 99.1948099,8.49485538 L99.1948099,8.49485538 C92.2805871,5.59885452 86.6568903,1.22527756 80.2090936,0.272820423 L80.2090936,0.272820423 C78.9499849,0.0869162409 77.7935865,-4.25996686e-15 76.7121064,-4.25996686e-15 L76.7121064,-4.25996686e-15 C72.0019281,-4.25996686e-15 68.7127784,1.64899424 64.5850285,3.95589613" id="path-3"></path>
        <path d="M64.5850285,3.95589613 C58.8127037,7.18266157 50.0219014,17.325304 41.2552662,19.9074407 L41.2552662,19.9074407 C30.8609733,22.9688238 22.371052,24.8109653 16.2603871,30.9240742 L16.2603871,30.9240742 C5.75734193,41.431282 2.2555213,62.4022394 2.16489447,67.5665128 L2.16489447,67.5665128 C1.89059727,82.9458587 -2.15740104,106.104208 1.56675741,124.641511 L1.56675741,124.641511 C13.2117006,182.614644 54.695829,228.425538 111.286845,218.942011 L111.286845,218.942011 C167.875445,209.458483 163.846781,162.008251 180.222444,104.877723 L180.222444,104.877723 C186.980789,81.2992788 162.803968,39.4611805 133.984637,18.5626533 L133.984637,18.5626533 C125.093541,12.1163654 108.478622,12.3843572 99.1948099,8.49485538 L99.1948099,8.49485538 C92.2805871,5.59885452 86.6568903,1.22527756 80.2090936,0.272820423 L80.2090936,0.272820423 C78.9499849,0.0869162409 77.7935865,-4.25996686e-15 76.7121064,-4.25996686e-15 L76.7121064,-4.25996686e-15 C72.0019281,-4.25996686e-15 68.7127784,1.64899424 64.5850285,3.95589613" id="path-5"></path>
        <path d="M64.5850285,3.95589613 C58.8127037,7.18266157 50.0219014,17.325304 41.2552662,19.9074407 L41.2552662,19.9074407 C30.8609733,22.9688238 22.371052,24.8109653 16.2603871,30.9240742 L16.2603871,30.9240742 C5.75734193,41.431282 2.2555213,62.4022394 2.16489447,67.5665128 L2.16489447,67.5665128 C1.89059727,82.9458587 -2.15740104,106.104208 1.56675741,124.641511 L1.56675741,124.641511 C13.2117006,182.614644 54.695829,228.425538 111.286845,218.942011 L111.286845,218.942011 C167.875445,209.458483 163.846781,162.008251 180.222444,104.877723 L180.222444,104.877723 C186.980789,81.2992788 162.803968,39.4611805 133.984637,18.5626533 L133.984637,18.5626533 C125.093541,12.1163654 108.478622,12.3843572 99.1948099,8.49485538 L99.1948099,8.49485538 C92.2805871,5.59885452 86.6568903,1.22527756 80.2090936,0.272820423 L80.2090936,0.272820423 C78.9499849,0.0869162409 77.7935865,-4.25996686e-15 76.7121064,-4.25996686e-15 L76.7121064,-4.25996686e-15 C72.0019281,-4.25996686e-15 68.7127784,1.64899424 64.5850285,3.95589613" id="path-7"></path>
        <polygon id="path-9" points="3.41467368e-14 0 85.8473727 0 85.8473727 27.3189401 3.41467368e-14 27.3189401"></polygon>
        <path d="M0.736410959,1.21226389 C-3.05891113,3.06003704 8.49573611,19.7427546 19.8238689,21.1588611 L19.8238689,21.1588611 C31.1532065,22.5737685 40.8776651,13.4224352 41.7632403,6.33950463 L41.7632403,6.33950463 C42.3451897,1.69189352 26.4229099,0 14.1429344,0 L14.1429344,0 C7.70655009,0 2.27020303,0.465240741 0.736410959,1.21226389" id="path-11"></path>
        <path d="M0.736410959,1.21226389 C-3.05891113,3.06003704 8.49573611,19.7427546 19.8238689,21.1588611 L19.8238689,21.1588611 C31.1532065,22.5737685 40.8776651,13.4224352 41.7632403,6.33950463 L41.7632403,6.33950463 C42.3451897,1.69189352 26.4229099,0 14.1429344,0 L14.1429344,0 C7.70655009,0 2.27020303,0.465240741 0.736410959,1.21226389" id="path-13"></path>
        <path d="M0.736410959,1.21226389 C-3.05891113,3.06003704 8.49573611,19.7427546 19.8238689,21.1588611 L19.8238689,21.1588611 C31.1532065,22.5737685 40.8776651,13.4224352 41.7632403,6.33950463 L41.7632403,6.33950463 C42.3451897,1.69189352 26.4229099,0 14.1429344,0 L14.1429344,0 C7.70655009,0 2.27020303,0.465240741 0.736410959,1.21226389" id="path-15"></path>
        <path d="M0.0427038193,9.0392259 C1.52132404,16.0587554 11.2806999,25.4691427 22.4620116,23.1060015 L22.4620116,23.1060015 C33.6433232,20.7428603 44.4772918,2.01608118 40.5359126,0.482027778 L40.5359126,0.482027778 C39.7037364,0.157864097 37.8114403,0 35.2799363,0 L35.2799363,0 C23.7307787,0 -1.16937883,3.28260917 0.0427038193,9.0392259" id="path-17"></path>
        <path d="M0.0427038193,9.0392259 C1.52132404,16.0587554 11.2806999,25.4691427 22.4620116,23.1060015 L22.4620116,23.1060015 C33.6433232,20.7428603 44.4772918,2.01608118 40.5359126,0.482027778 L40.5359126,0.482027778 C39.7037364,0.157864097 37.8114403,0 35.2799363,0 L35.2799363,0 C23.7307787,0 -1.16937883,3.28260917 0.0427038193,9.0392259" id="path-19"></path>
        <path d="M0.0427038193,9.0392259 C1.52132404,16.0587554 11.2806999,25.4691427 22.4620116,23.1060015 L22.4620116,23.1060015 C33.6433232,20.7428603 44.4772918,2.01608118 40.5359126,0.482027778 L40.5359126,0.482027778 C39.7037364,0.157864097 37.8114403,0 35.2799363,0 L35.2799363,0 C23.7307787,0 -1.16937883,3.28260917 0.0427038193,9.0392259" id="path-21"></path>
    </defs>
    <g id="Page-1" stroke="none" stroke-width="1" fill="none" fill-rule="evenodd">
        <g id="MKB_01" transform="translate(-246.000000, -3354.000000)">
            <g id="lead_face" transform="translate(207.000000, 3283.000000)">
                <g id="Group-149" transform="translate(156.500000, 200.500000) rotate(-180.000000) translate(-156.500000, -200.500000) translate(39.000000, 71.000000)">
                    <g transform="translate(0.298877, 0.311839)">
                        <g id="Group-20">
                            <path d="M144.618909,44.541077 C149.924258,47.5504216 154.955526,51.1753963 160.726935,53.1514482 L170.144716,35.3742245 C168.740501,27.4048329 164.781411,19.821719 158.687624,14.4959153 C152.592629,9.17011168 144.341205,6.23922969 136.285381,7.03230608 C139.146937,9.34031528 141.063093,12.7854294 141.515871,16.4333394 C141.158478,14.1180875 139.286996,12.2434336 137.126944,11.3344739 C134.968099,10.4255142 132.553283,10.3410159 130.214534,10.4689704 C132.354061,11.1111571 132.892565,13.8609714 132.901017,16.0953464 C132.937239,24.2735694 125.1398,33.2460759 121.427021,40.533446 C127.488208,39.8453888 139.313559,41.5305252 144.618909,44.541077" id="Fill-1" fill="#FBDD86"></path>
                            <path d="M20.9003052,206.378513 C12.69114,184.372756 4.4240192,162.142475 1.2714776,138.86683 C-1.88227142,115.593599 0.472173673,90.8525129 12.3977399,70.6163904 C16.8736004,63.0212053 22.7102094,55.9656019 24.8267952,47.4083439 C26.9433809,38.8498788 23.6097282,27.9701262 15.1240666,25.5715832 C21.7756758,21.8548675 30.4955745,22.1976889 36.8332577,26.4250154 L28.6397888,12.6011026 C35.8407686,8.98095632 54.8815886,17.5997773 57.3181374,25.2818749 C59.1799602,31.1484673 48.0041941,33.4009491 50.3236244,39.1009593" id="Fill-3" fill="#FBDD86"></path>
                            <g id="Group-7" transform="translate(138.368116, 0.000000)">
                                <mask id="mask-2" fill="white">
                                    <use xlink:href="#path-1"></use>
                                </mask>
                                <g id="Clip-6"></g>
                                <path d="M57.796719,227.399383 C65.099121,226.217615 69.7283223,220.550197 73.0643899,213.94847 C76.3992501,207.34795 81.6116293,202.335997 83.9322669,190.35656 C90.2880613,157.55072 100.38682,122.672258 93.7557363,89.9195316 C90.9521355,76.0726835 80.168777,59.2877107 79.9598955,45.1620184 C79.8041399,34.5369677 82.537711,22.5454596 91.6669209,17.1049797 C79.9828362,21.7741113 69.0920184,28.4253303 59.6042084,36.6892587 C59.7744529,25.1142062 65.714899,13.7660919 75.1302645,7.02916757 C64.5292246,8.82898019 54.8144219,15.3293095 49.1106278,24.4442559 C48.329435,16.0077097 50.2214429,7.3430182 54.4497848,-0.00108640601 C29.9164669,10.8014106 9.39174279,32.5512589 2.62422241,59.0716366 C1.8104296,62.2596347 -0.0356968354,65.214659 0,68.5052621 C0.0379550366,71.7970723 1.77299996,75.2916783 4.87603785,76.3877412" id="Fill-5" fill="#FBDD86" mask="url(#mask-2)"></path>
                            </g>
                            <path d="M173.179777,237.329858 C168.39482,241.111758 163.072566,244.328727 157.465365,247.043535 C133.704788,258.547368 104.561587,260.597054 79.2362101,252.549199 C53.9120402,244.500138 28.6820481,223.782376 18.4480601,201.474839 C15.7519186,195.599797 3.63316713,169.139775 4.41918957,167.5838 C14.4781034,184.204605 41.6218368,214.738649 59.7655529,224.338857 C80.9132994,235.530046 107.299988,233.766447 131.816402,231.656405" id="Fill-8" fill="#FBDD86"></path>
                            <path d="M42.0452747,30.1793932 C41.8677858,30.4425448 41.6902968,30.7032823 41.5128079,30.9640197 C41.6069857,32.9726637 41.2508004,33.3637699 42.0452747,30.1793932" id="Fill-10" fill="#E0B55A"></path>
                            <path d="M41.7887006,35.2754823 C41.9661895,35.0135378 42.142471,34.7528003 42.3211674,34.4908558 C41.5279005,37.6740253 41.8828784,37.2841263 41.7887006,35.2754823 C23.8405845,61.7379184 7.88469126,83.8112742 10.6013587,115.763682 C9.56661024,123.43733 21.7457321,113.017489 24.4962069,120.256574 L170.704832,55.2255179 C170.759166,54.9382239 170.800217,54.6497228 170.847306,54.3612216 C169.428602,51.89508 167.890365,49.6727761 167.417061,50.0771606 C153.539116,55.1192916 137.880245,59.4130095 124.201523,54.0558208 C115.820906,51.1044178 108.927815,42.8948098 106.171303,34.1649339 C92.193144,48.964198 88.4006763,31.0988548 75.3268653,47.2971683 C77.804466,32.3349434 67.0090334,15.3254467 51.4709032,10.6587293 C48.2567838,9.69424222 58.200994,22.8723471 54.5401337,30.8175963 C53.9207335,32.1599113 44.9955755,16.6194769 36.8383288,19.0469908 C42.0253525,22.8433762 41.665545,32.6596581 41.7887006,35.2754823" id="Fill-12" fill="#E0B55A"></path>
                            <path d="M124.621218,56.5392242 C138.29994,61.896413 153.957604,57.6051092 167.836756,52.560564 C168.308852,52.1561795 169.848297,54.3784834 171.265794,56.844625 C174.246884,38.7004376 163.138732,19.1427153 145.938002,12.5458166 C149.089336,18.8240362 149.569884,26.3866291 147.237172,33.0137057 C145.360861,25.5730317 143.797268,18.6043407 137.439059,14.3070014 C139.280355,25.9122318 128.600834,35.3132651 125.74773,45.6799926 L106.901302,36.3200013 C106.796258,36.4334704 106.693628,36.5396968 106.589791,36.6483374 C109.346303,45.3794203 116.240601,53.5890284 124.621218,56.5392242" id="Fill-14" fill="#E0B55A"></path>
                            <path d="M165.035691,40.8808545 C163.321172,27.4214912 171.284026,13.2933846 183.69014,7.78892751 C180.45791,12.5751495 178.33408,18.1049561 177.533568,23.8242802 C178.104672,20.0701438 181.930947,17.119948 185.707719,17.5231253 C177.764183,25.9270793 175.162219,38.9832653 179.277065,49.7893837 C180.169339,46.4022112 181.084554,42.9643398 182.900496,39.9706876 C184.717644,36.9770355 187.596104,34.4372597 191.052913,33.8723286 C182.584155,43.7839727 190.52769,66.4512305 190.862142,79.482067" id="Fill-16" fill="#E0B55A"></path>
                            <path d="M29.2106512,145.272883 C25.4894205,126.73759 29.5354439,103.579035 29.808318,88.2003545 C29.900081,83.0363046 33.3979412,62.0662544 43.8927293,51.5595012 C49.9997976,45.4466568 58.4830444,43.604595 68.8691658,40.5433443 C77.6289089,37.9613194 86.4115928,27.8191158 92.180587,24.5924899 C97.2516995,21.7569702 101.055034,19.9149085 107.791162,20.9107807 C114.235097,21.8619895 119.854372,26.2365843 126.761952,29.1312528 C136.039673,33.0205863 152.641529,32.7526061 161.524428,39.1986151 C190.321103,60.0950311 214.478917,101.933734 207.727093,125.509951 C191.364303,182.638007 195.3898,230.087393 138.844481,239.569303 C82.2991621,249.052421 40.8464396,203.243508 29.2106512,145.272883" id="Fill-18" fill="#EFC9B1"></path>
                        </g>
                        <g id="Group-30" transform="translate(27.628677, 20.577401)">
                            <g id="Group-23">
                                <mask id="mask-4" fill="white">
                                    <use xlink:href="#path-3"></use>
                                </mask>
                                <g id="Clip-22"></g>
                                <path d="M-42.4399385,-6.9471427 L49.7178786,-20.3563872 C58.181216,-21.5889078 66.1781273,-16.4487779 67.7465756,-8.77117659 L72.5812147,0.846346896 C73.3944395,4.83121511 81.6898151,68.9669507 78.973427,72.1756086 C78.973427,72.1756086 66.4210072,78.1354069 71.4465669,81.1086667 C71.4465669,81.1086667 82.8897143,85.8154225 83.5071851,88.8924989 L97.2776295,166.285376 C98.4642368,172.189644 100.177688,173.582718 94.5310325,176.669452 L14.9328853,220.203624 C5.628531,225.291846 -6.40429503,220.519903 -8.65909051,210.846849 L-55.4104501,10.2731375 C-57.2906547,2.20803467 -51.373327,-5.6470206 -42.4399385,-6.9471427" id="Fill-21" fill="#E0A592" mask="url(#mask-4)"></path>
                            </g>
                            <g id="Group-26">
                                <mask id="mask-6" fill="white">
                                    <use xlink:href="#path-5"></use>
                                </mask>
                                <g id="Clip-25"></g>
                                <path d="M168.753075,88.9568411 L168.405068,89.7040793 C168.545238,89.4626453 168.660032,89.2127611 168.753075,88.9568411" id="Fill-24" fill="#E0A592" mask="url(#mask-6)"></path>
                            </g>
                            <g id="Group-29">
                                <mask id="mask-8" fill="white">
                                    <use xlink:href="#path-7"></use>
                                </mask>
                                <g id="Clip-28"></g>
                                <path d="M57.6985979,74.0534822 L57.7771412,74.818828 C57.7723077,74.5580793 57.7445155,74.3033664 57.6985979,74.0534822" id="Fill-27" fill="#CC8769" mask="url(#mask-8)"></path>
                            </g>
                        </g>
                        <g id="Group-106" transform="translate(6.557195, 33.876131)">
                            <path d="M176.767001,107.492191 C176.331068,112.873546 173.033193,117.656435 169.295764,121.6647 C164.806018,126.478961 159.43233,130.640461 153.219382,133.015014 C147.007641,135.390773 139.90109,135.866166 133.702632,133.53505 C139.447044,131.838597 150.298269,127.345286 155.329007,124.145432 C163.993323,118.631353 166.767112,114.153729 174.956853,107.98689" id="Fill-31" fill="#D2905C"></path>
                            <path d="M86.9468427,129.86113 C84.5896657,131.575682 60.2474657,134.132429 35.0937786,127.673597 C42.9478151,135.879559 54.2615402,140.854296 65.8167794,141.180073 C73.3266585,141.392431 81.4439453,139.368994 86.195734,133.673928 L86.9468427,129.86113 Z" id="Fill-33" fill="#D2905C"></path>
                            <path d="M164.581047,202.251326 C171.813185,203.451875 179.366537,201.397066 185.6616,197.930557 C191.956664,194.465254 197.193896,189.670299 202.307955,184.882582 C207.746852,179.793221 208.333731,168.696289 211.619529,162.294166 C214.661398,156.365024 202.409391,129.710428 203.037328,123.219018 C204.698944,106.038502 222.180938,114.589546 219.230844,97.574331 C189.368841,105.187862 181.423029,105.070823 150.436778,105.635503 C161.436535,156.600307 130.759421,157.51369 127.752572,167.22064 C133.797668,148.295406 131.609551,127.399824 121.753363,109.910422 C128.465038,126.537118 128.343073,145.34652 121.416451,161.982868 C120.898403,142.997305 118.873308,122.694155 105.598489,107.982305 C107.293917,110.426839 106.389447,127.491524 106.073064,131.502202 C105.866569,134.110831 100.655904,151.801732 97.9666452,152.814054 C94.7762448,154.014603 86.7640166,120.11931 83.4709726,121.062857 C64.7632952,126.424906 44.5920427,127.619422 25.3518268,124.33752 C34.5172845,140.027908 46.5627972,154.346413 60.855598,166.544954 C40.0286349,156.23592 21.665115,140.388676 14.1661041,120.106038 C14.1238391,132.627942 14.1685192,145.558878 19.6726241,157.031057 C25.3216375,168.804881 29.6411161,186.66229 40.7181575,194.734322 C59.0249216,208.071876 73.5278397,213.823651 96.5646562,218.499155 C119.601473,223.174659 147.217396,216.772537 164.581047,202.251326" id="Fill-35" fill="#FBDD86"></path>
                            <path d="M209.481647,99.9616736 C205.495458,100.891948 201.928295,101.646062 198.589364,102.274691 C198.372001,125.61722 193.301414,148.963369 188.195807,172.309518 C199.56508,149.47134 208.941863,124.831735 209.481647,99.9616736" id="Fill-37" fill="#FBDD86"></path>
                            <path d="M19.6732279,157.03154 C20.2890887,158.314136 20.886836,159.67878 21.4821681,161.086861 C19.897836,155.84185 17.9379496,150.641483 15.9007786,145.467661 C16.7207188,149.430075 17.8884392,153.311648 19.6732279,157.03154" id="Fill-39" fill="#FBDD86"></path>
                            <path d="M121.753001,109.91006 C127.417712,123.945019 128.19418,139.530434 124.140367,154.055265 C127.0808,146.78199 128.841438,139.373579 129.725379,131.55131 C128.24369,124.033099 125.587036,116.712768 121.753001,109.91006" id="Fill-41" fill="#FFECA0"></path>
                            <path d="M120.041874,162.799362 C120.520071,161.925797 120.91857,161.052232 121.358125,160.179873 C120.977741,148.546013 119.907833,136.512773 115.961494,125.629407 C118.683357,138.018587 122.298822,150.406562 120.041874,162.799362" id="Fill-43" fill="#FBDD86"></path>
                            <path d="M67.6363462,186.725998 C65.7042339,179.700073 63.4110581,172.999925 60.7701021,166.501276 C39.9781585,156.191035 21.6544884,140.36189 14.1663456,120.105796 C14.1554774,123.474572 14.1603077,126.873513 14.2665739,130.264008 C30.8827398,149.086682 49.259543,167.905737 67.6363462,186.725998" id="Fill-45" fill="#FBDD86"></path>
                            <path d="M62.3797931,165.226643 C59.7509128,153.28269 54.5028128,143.730183 49.2522976,131.786231 C59.7436674,143.726563 75.4770995,153.271831 78.1096025,169.995053 C83.3420041,155.656037 70.230207,146.107149 70.2205464,131.771752 C80.7095011,138.932814 80.7167465,148.490148 85.9648466,158.043862 C85.9576012,148.486528 80.7082935,136.544989 80.7010481,126.987656 C88.5744058,141.318226 88.5852739,158.041449 96.4598392,174.759845 C96.457424,169.981781 96.4538013,165.203718 96.4501786,160.425654 C101.699486,169.978161 99.0863043,181.92694 99.0923422,191.483067 C111.546014,171.018235 116.86536,146.238667 115.084194,123.305168 C112.830868,117.788677 109.772093,112.608822 105.59873,107.982787 C107.292951,110.427322 106.389689,127.492007 106.073305,131.502684 C105.866811,134.111314 100.656146,151.802215 97.9668868,152.814537 C94.7764863,154.015086 86.7642581,120.118586 83.4700066,121.062133 C64.7635367,126.425389 46.8830448,131.505097 27.6428289,128.221989 C36.7865505,143.873766 46.5050754,154.273294 60.7519885,166.45253 C56.2151473,155.295269 50.6385881,144.735266 44.0114429,134.180089 C51.8811779,143.73139 59.7509128,153.28269 62.3797931,165.226643" id="Fill-47" fill="#FFECA0"></path>
                            <path d="M14.2662116,130.264128 C14.4256109,135.3921 14.8712043,140.495941 15.9012617,145.468264 C17.937225,150.642086 19.898319,155.841247 21.4814435,161.087464 C26.3419136,172.591014 30.847358,187.541768 40.7180367,194.734201 C59.0248009,208.071755 73.5277189,213.82353 96.5645355,218.499034 C119.601352,223.174538 147.217275,216.772416 164.580927,202.251205 C171.813065,203.451754 179.366416,201.396945 185.66148,197.930436 C191.956543,194.465134 197.193775,189.670178 202.307835,184.883668 C207.746731,179.7931 207.115172,172.972294 210.399763,166.570171 C213.441632,160.639822 212.480406,99.2634247 209.482009,99.9620355 C208.942225,124.832097 199.564235,149.471702 188.196169,172.30988 C193.301776,148.963731 198.372363,125.616376 198.589726,102.275053 C198.497951,102.290738 198.408591,102.30763 198.31923,102.325729 C195.802654,116.09162 193.098904,129.773049 185.554006,141.251261 C185.545553,129.767017 185.511741,116.094033 183.175093,104.440867 C182.946862,104.460172 182.719839,104.484304 182.491608,104.502402 C180.014881,113.328548 177.615439,138.246873 175.13992,147.298649 C172.513455,140.133966 178.125034,119.778933 172.42651,107.812056 C172.432548,117.368183 169.816951,126.926723 167.202562,136.485263 C164.576096,126.930343 164.571266,119.763248 161.942386,110.208327 C161.950839,122.153486 161.961707,136.488883 156.72689,148.438868 C156.720852,138.882741 156.716022,131.714439 156.708777,122.157106 C156.72206,141.271773 146.248804,158.002235 133.153912,172.347284 C136.958966,166.888709 139.279916,161.326367 140.592545,155.684391 C134.846926,160.744795 128.984172,163.248452 127.752451,167.220519 C131.446408,155.65664 132.050193,143.360366 129.724413,131.550344 C128.840472,139.37382 127.081042,146.781025 124.140608,154.055506 C123.390707,156.737737 122.495898,159.389804 121.41633,161.982748 C121.400632,161.384283 121.377688,160.780992 121.358367,160.180115 C120.917604,161.052473 120.519105,161.926038 120.042115,162.799604 C122.299064,150.406803 118.683599,138.018829 115.961736,125.629648 C115.677957,124.851403 115.396593,124.070744 115.083832,123.304565 C116.864998,146.238063 111.546859,171.017631 99.0931875,191.482464 C99.0859421,181.926337 101.699124,169.978765 96.4510239,160.425051 C96.453439,165.204321 96.4570617,169.982384 96.4594769,174.760448 C88.5849116,158.040845 88.5740435,141.317623 80.7018934,126.987052 C80.7079313,136.544386 85.9584465,148.487132 85.9644843,158.043259 C80.7163843,148.489545 80.7091388,138.933418 70.2201841,131.772355 C70.2298447,146.107752 83.3416419,155.65664 78.1092402,169.995657 C75.4767372,153.271228 59.7445127,143.72596 49.2519353,131.786834 C54.5024505,143.72958 59.7505506,153.282087 62.3794309,165.227246 C59.7505506,153.282087 51.8808156,143.730786 44.0110806,134.179486 C50.6382259,144.734662 56.214785,155.294665 60.7516262,166.451926 C60.7866458,166.483297 60.8204577,166.515875 60.8554773,166.544833 C60.8277032,166.531561 60.7987215,166.515875 60.7709474,166.501396 C63.4106958,173.000045 65.7038716,179.700193 67.6359839,186.726119 C49.2591807,167.905857 30.8823775,149.086803 14.2662116,130.264128" id="Fill-49" fill="#FBDD86"></path>
                            <path d="M198.318747,102.325367 C192.923324,103.331656 188.103911,103.995276 183.174609,104.440505 C185.512465,116.093671 185.546277,129.766655 185.553523,141.252106 C193.098421,129.772687 195.803379,116.091258 198.318747,102.325367" id="Fill-51" fill="#FFECA0"></path>
                            <path d="M156.70938,122.157347 C156.715418,131.714681 156.720248,138.881776 156.727494,148.43911 C161.961103,136.489124 161.951443,122.153727 161.94299,110.208569 C164.570662,119.763489 164.575493,126.930584 167.203165,136.485505 C169.817555,126.926965 172.433152,117.368424 172.425906,107.811091 C180.294434,114.974566 172.435567,122.146488 175.062032,129.313583 C177.537551,120.261807 180.014278,113.328789 182.491004,104.502644 C173.744573,105.256757 164.448698,105.379829 150.437261,105.635624 C156.935196,135.744664 148.887948,148.379987 140.593149,155.684633 C139.279312,161.326609 136.95957,166.887744 133.153309,172.347526 C146.249407,158.002476 156.722664,141.272014 156.70938,122.157347" id="Fill-53" fill="#FFECA0"></path>
                            <path d="M40.718399,194.733719 C32.4501659,185.850864 22.5988082,171.819526 17.2758388,161.20402 C11.1087778,148.905333 9.43387799,139.796848 5.65297571,126.70423 C-7.40810351,81.4851674 3.64237134,61.2881965 23.6916593,21.6133772 C17.5463346,47.6091798 18.5800146,52.7878284 18.4435592,79.3784758 C18.3058962,105.967917 22.7690756,142.17502 58.1689959,164.569176" id="Fill-55" fill="#FBDD86"></path>
                            <path d="M105.709585,107.690191 C107.855438,120.054034 106.895419,132.863105 102.920098,144.893931 C101.471014,149.279856 99.493014,153.741795 95.6782997,156.783587 C101.968533,145.695101 103.793171,132.93188 103.102441,120.53908 C102.86455,116.248475 104.230312,110.036993 102.249897,106.136114" id="Fill-57" fill="#E0B55A"></path>
                            <path d="M167.059223,201.204978 C179.584141,202.001322 191.652598,195.097262 198.79779,185.777625 C205.942983,176.457988 208.866511,165.06303 210.293859,153.84906 C209.837397,164.844639 204.177516,175.427567 195.777657,183.485119 C187.377799,191.543879 176.38408,197.195507 164.768462,200.763369" id="Fill-59" fill="#E0B55A"></path>
                            <path d="M164.62935,198.101288 C169.01766,196.418107 172.247911,192.847831 174.21625,188.94454 C176.184589,185.040041 177.041964,180.777188 177.882433,176.563805 C179.845942,166.720511 181.809451,156.602117 179.664807,146.814327 C181.267252,164.640365 173.689749,183.016604 159.517706,195.677265 C159.730238,195.070355 160.396817,194.61306 161.103245,194.588929 L162.546292,197.056388" id="Fill-61" fill="#E0B55A"></path>
                            <path d="M154.929905,199.481135 C137.21968,208.595653 115.381981,210.937628 95.8797224,205.815689 C76.3774638,200.692543 59.4799341,188.174258 50.1876814,171.967453 C63.2004578,178.947528 72.7994333,190.1253 85.404051,197.682122 C104.739665,209.274959 133.631989,208.138359 154.929905,199.481135" id="Fill-63" fill="#E0B55A"></path>
                            <path d="M170.425446,198.045906 C175.579355,197.908356 180.042535,194.784516 183.655585,191.431425 C194.500773,181.367327 201.311468,167.793283 202.54802,153.778837 C198.401224,173.628312 183.812569,191.495374 164.094155,200.87896" id="Fill-65" fill="#FFECA0"></path>
                            <path d="M52.8742836,165.734493 C28.435478,148.490027 22.6886515,145.021105 8.49849412,96.3415665 C8.6977432,115.93042 14.4216259,132.421979 26.9924316,148.290941 C32.762202,155.573868 43.4721421,164.788533 52.614656,168.198333 C52.614656,168.198333 59.2418012,170.227803 52.8742836,165.734493" id="Fill-67" fill="#FFECA0"></path>
                            <path d="M168.606483,203.619348 C171.0977,203.864284 173.603408,203.318909 176.004058,202.649256 C184.103231,200.390536 191.741112,196.63686 198.008402,191.447352 C204.276899,186.257844 212.802344,167.207126 215.283901,159.849391 C212.296372,163.111988 205.341976,178.552613 201.791719,181.313272 C212.024669,165.620471 210.623888,149.635677 212.284297,147.274396 C210.10584,155.369353 193.589902,181.757294 189.095326,186.140806 C186.575127,188.598613 180.416519,190.886292 177.415707,192.8494 C174.443877,194.793203 178.888943,197.619017 175.415971,198.667537 C179.612277,194.997115 183.249479,190.797005 186.19112,186.230093 C182.23512,190.038065 177.420538,193.008669 172.649428,195.945489 C182.127646,189.074006 186.549768,177.557184 186.20078,166.570051 C185.600618,171.130929 183.09491,175.298463 180.383915,179.183656 C175.949717,185.539928 170.398517,191.798467 162.616934,194.364867 C165.233739,193.187243 166.170814,190.246803 166.510141,187.614042 C167.161021,182.570531 166.622445,177.406361 164.94513,172.571588 C164.853354,176.496598 164.750711,180.477111 163.502083,184.239233 C162.254663,188.002561 159.692199,191.583696 155.82556,193.350131 C157.226341,192.784245 157.537894,191.134847 157.658651,189.748485 C157.936392,186.526912 158.194812,183.181061 156.930486,180.16702 C158.443572,186.821318 155.739822,194.147682 150.106507,198.649438 C154.487572,197.679346 158.465308,195.255324 161.11834,191.938431 C158.36025,195.278249 155.602159,198.61686 152.845276,201.957885 C156.428137,200.382089 152.120734,204.514632 155.512799,202.620299 C153.670047,204.351743 159.631821,200.213168 157.790276,201.944613 C158.96645,201.402858 160.141416,200.861102 161.317589,200.318141 C161.435931,201.318397 160.997583,202.346404 161.266871,203.321322 C161.636387,204.650976 163.258154,205.431634 164.770032,205.430429 C166.28191,205.428014 167.70805,204.82955 169.077435,204.243151" id="Fill-69" fill="#E0B55A"></path>
                            <path d="M114.524605,73.5347593 C114.519776,66.6825819 127.696782,61.1202403 143.956715,61.1093614 C160.216647,61.0973152 173.400899,66.6439713 173.40573,73.4961487 C173.410559,80.3471196 160.233553,85.9106678 143.973621,85.9215429 C127.713688,85.9323862 114.529437,80.3869368 114.524605,73.5347593" id="Fill-71" fill="#EFC9B1"></path>
                            <g id="Group-75" transform="translate(82.944714, 197.133368)">
                                <mask id="mask-10" fill="white">
                                    <use xlink:href="#path-9"></use>
                                </mask>
                                <g id="Clip-74"></g>
                                <path d="M49.5997381,14.4524355 C56.0240116,14.6840992 61.8336318,14.3776275 65.1073546,13.63196 C50.5839079,17.8899868 38.819759,21.6907191 23.6840742,21.6424558 C19.3645956,21.6291834 3.95237724,21.7293297 3.41467368e-14,19.9882323 C5.76856282,26.1671372 19.2474613,25.3201168 30.2798226,27.0310497 C41.314599,28.7419825 60.3821324,22.3820904 67.3280762,20.0630404 C70.6899516,18.942126 82.5193092,9.70091682 85.8473727,8.48226931 L79.196076,0 C77.8592958,1.61561289 68.9196537,5.8989779 66.954937,6.55053201 C62.6741006,11.1850123 56.2498272,13.0648666 49.5997381,14.4524355" id="Fill-73" fill="#E0B55A" mask="url(#mask-10)"></path>
                            </g>
                            <path d="M175.578268,186.133325 C183.513212,161.576974 194.663915,112.498057 189.566762,87.2008656 C188.128545,80.0554888 181.635441,48.7531399 181.949409,41.4690062 C182.526627,28.1543772 189.794992,15.2970427 200.909468,7.92965489 C197.216719,15.965489 194.622858,24.5044676 193.219661,33.2340862 C193.185849,33.6708687 193.15083,34.1052381 193.11581,34.5408141 C194.765351,29.0267358 198.595764,24.4743031 202.329571,20.0919984 C196.855655,29.9461511 194.842636,41.6753317 196.715577,52.7891557 C196.715577,52.7891557 202.411686,123.714441 199.9893,136.044499 C192.07247,176.352774 176.802745,188.57424 176.802745,188.57424" id="Fill-76" fill="#FFECA0"></path>
                            <path d="M158.707668,41.0901396 C160.106034,41.2204504 143.552662,49.6194656 144.001878,49.0933959 C145.11405,47.786668 147.346847,44.6664477 150.31264,42.0759168 C154.642986,38.296903 143.556284,28.830063 141.657984,26.9562416 C150.87899,29.6770833 159.08926,36.7476521 158.707668,41.0901396" id="Fill-78" fill="#E0A592"></path>
                            <path d="M50.3065063,48.2118674 C52.0200484,51.8050676 63.1659213,52.6086511 65.9445404,52.7015578 C67.8899359,52.7655067 58.5723243,50.0205333 55.3879617,45.33417 C53.1322206,42.0148638 58.9587468,35.6103282 60.1880532,34.0815891 C52.7989312,36.5888659 48.1642768,43.8693798 49.4612072,47.2031651" id="Fill-80" fill="#CC8769"></path>
                            <path d="M186.523081,185.428681 C193.086225,160.471745 201.158832,104.754216 194.669349,79.7767684 C192.836258,72.7230918 184.618743,41.8261544 184.53059,34.538401 C184.368776,21.2117062 190.913806,7.97188525 201.603217,-8.51993373e-15 C198.360891,8.22888715 196.244021,16.89697 195.327475,25.691744 C195.316607,26.1297332 195.305739,26.5653091 195.296078,27.0020917 C196.636481,21.4059658 200.208474,16.6472076 203.694729,12.0658169 C198.775088,22.2083427 203.346949,27.7936093 205.833336,38.7867751 C205.833336,38.7867751 224.926228,51.7828665 219.436614,117.531916 C216.01919,158.4652 187.201735,186.613544 187.201735,186.613544" id="Fill-82" fill="#FFECA0"></path>
                            <path d="M203.552356,88.8737911 C206.741549,116.983525 207.653265,146.600279 195.851681,172.316155 C213.561906,142.633038 220.016369,106.423522 213.652474,72.455834 C213.16703,69.8665097 212.609133,67.2904578 212.040367,64.716819 C208.674869,55.8520633 205.448242,46.8232125 200.662641,38.8766655 C199.685717,43.7572884 199.718321,48.8526829 199.967081,53.8503443 C200.552752,65.5722854 202.22886,77.2097659 203.552356,88.8737911" id="Fill-84" fill="#FBDD86"></path>
                            <path d="M59.3850191,42.9600999 C71.1370922,35.1390373 68.1978663,24.3099666 80.5005915,17.2840414 C96.5419539,8.12367323 117.732396,12.71351 123.10246,21.2211175 C133.442884,37.6028772 143.987387,37.6595865 148.56287,39.5418539 C151.434472,40.7230974 144.342412,38.2073746 140.822345,37.2903725 C132.183388,35.0413042 119.346917,30.5214492 111.814094,30.2029116 C102.466293,29.492235 93.1076243,29.411394 83.7755218,29.9688348 C77.0203742,32.578671 69.4078517,39.0966253 62.9630495,42.3749078 C59.1555807,42.5522753 63.1997333,42.5619279 59.3850191,42.9600999" id="Fill-86" fill="#D6778B"></path>
                            <path d="M61.004733,41.2940519 C72.7568061,33.4729893 78.3394031,21.4035527 101.026024,21.3359043 C115.446828,21.2937537 132.483228,38.0242155 143.987749,37.6598278 C135.292036,37.936135 123.597926,36.3868841 112.996668,35.9380357 C103.648867,35.2273591 94.2901978,35.1465181 84.9568878,35.7027523 C78.2041552,38.3113819 85.3904055,37.2037399 78.9456033,40.4820224 C75.1381345,40.6605965 64.8194472,40.8958799 61.004733,41.2940519" id="Fill-88" fill="#000000"></path>
                            <path d="M128.088035,38.1985665 C112.930614,26.9520186 84.8992867,29.9286556 73.1918936,40.8687318 C91.7305112,41.0521322 110.685741,41.8545091 128.088035,38.1985665" id="Fill-90" fill="#FFFFFF"></path>
                            <path d="M74.5851881,42.7220413 C85.9882735,45.5273437 87.2574297,48.4701965 98.6508545,45.7348758 C100.661459,45.2739616 103.097128,43.4339245 104.069222,43.337398 C105.641478,43.1793358 109.411513,45.0555703 110.925806,45.3282578 C120.100924,47.00058 127.711031,41.3380921 138.424594,39.0829909 C139.128607,38.7354954 140.849395,38.9454406 142.687317,39.224161 C144.606146,39.5149472 149.010154,40.3088779 147.552617,39.5921684 C146.159081,38.9080366 146.395765,37.9488041 146.266555,37.946391 C140.745544,36.0279261 95.5787959,34.1685837 71.4575813,39.172278 C70.5591491,39.3580916 69.5290917,39.5668302 68.0534409,39.8214189 C66.1925753,40.118238 64.518883,40.331803 61.0048537,41.2934486 C57.1068171,43.0635039 53.5553532,44.8323527 55.744678,44.7273801 C59.5787133,44.5813837 74.0840465,42.50365 74.5851881,42.7220413" id="Fill-92" fill="#AD4B4A"></path>
                            <path d="M61.6792817,44.2008278 C61.9896272,42.8458366 55.7199228,42.6395111 53.9399643,43.3863852 C52.1600058,44.1332593 51.9583416,46.5488358 53.2999521,47.7192201 C54.640355,48.8896043 57.1702146,49.2310669 58.950173,48.4841928 C60.7301315,47.7373188 61.5198824,44.8958189 61.6792817,44.2008278" id="Fill-94" fill="#AD4B4A"></path>
                            <path d="M156.744762,98.9742071 C161.940937,98.374536 171.203,106.950919 169.9906,108.787336 C171.537497,106.942473 165.985089,96.7118664 162.985485,96.0651386" id="Fill-96" fill="#45100D"></path>
                            <path d="M158.947732,95.9789887 C162.688785,92.3278725 175.268044,93.442754 175.433481,95.6363195 C175.526464,93.2316022 164.868449,88.539206 162.100698,89.8616195" id="Fill-98" fill="#45100D"></path>
                            <path d="M151.721149,103.03351 C156.926984,103.531828 164.191727,113.854135 162.621886,115.396146 C164.520186,113.91567 161.230765,102.75117 158.432825,101.492705" id="Fill-100" fill="#45100D"></path>
                            <path d="M119.772948,90.0214916 C121.922423,81.0722752 168.089039,79.0898615 166.043415,95.8275627 C164.92762,104.962593 153.698425,115.837514 140.921125,114.233966 C128.143824,112.631626 118.43979,95.5705608 119.772948,90.0214916" id="Fill-102" fill="#45100D"></path>
                            <path d="M120.916879,87.4752422 C125.387304,85.2889162 162.923416,85.5061009 162.034644,92.633379 C161.14708,99.7618636 151.401989,108.970495 140.047206,107.546729 C128.692424,106.121756 117.113033,89.3345846 120.916879,87.4752422" id="Fill-104" fill="#FFFFFF"></path>
                        </g>
                        <g id="Group-116" transform="translate(126.805793, 120.351785)">
                            <g id="Group-109" transform="translate(0.000000, 0.000000)">
                                <mask id="mask-12" fill="white">
                                    <use xlink:href="#path-11"></use>
                                </mask>
                                <g id="Clip-108"></g>
                                <path d="M8.83815851,7.72647361 C9.00683949,1.24427917 14.3961968,-3.87576713 20.8759563,-3.70789676 C27.3557157,-3.54122546 32.4715689,1.8486125 32.3040928,8.32960787 C32.1354118,14.8118023 26.7460544,19.9318486 20.266295,19.7651773 C13.7853307,19.598506 8.66947752,14.2086681 8.83815851,7.72647361" id="Fill-107" fill="#40738C" mask="url(#mask-12)"></path>
                            </g>
                            <g id="Group-112" transform="translate(0.000000, 0.000000)">
                                <mask id="mask-14" fill="white">
                                    <use xlink:href="#path-13"></use>
                                </mask>
                                <g id="Clip-111"></g>
                                <path d="M14.6559656,7.87635787 C14.7415109,4.60768194 17.4584796,2.02727454 20.7248663,2.11120972 C23.991253,2.19634398 26.5708672,4.91224676 26.4853218,8.18092269 C26.4009813,11.4483995 23.6840127,14.0288069 20.4176259,13.9460708 C17.1500344,13.8609366 14.5716251,11.1438347 14.6559656,7.87635787" id="Fill-110" fill="#000000" mask="url(#mask-14)"></path>
                            </g>
                            <g id="Group-115" transform="translate(0.000000, 0.000000)">
                                <mask id="mask-16" fill="white">
                                    <use xlink:href="#path-15"></use>
                                </mask>
                                <g id="Clip-114"></g>
                                <path d="M22.8294025,9.06715833 C22.8944652,6.5527 24.9849045,4.56823241 27.4970463,4.63298241 C30.009188,4.69653333 31.9935993,6.78771852 31.9285366,9.30097778 C31.863474,11.814237 29.7730346,13.7987046 27.2608929,13.7351537 C24.7475463,13.6704037 22.7643399,11.5804176 22.8294025,9.06715833" id="Fill-113" fill="#FFFFFF" mask="url(#mask-16)"></path>
                            </g>
                        </g>
                        <g id="Group-127" transform="translate(40.896238, 119.357340)">
                            <path d="M18.8938336,17.7242308 C13.6702236,17.5593912 5.16209846,26.8517729 6.52199876,28.5759711 C4.82785499,26.8722274 9.50485019,16.244284 12.4358154,15.3515031" id="Fill-117" fill="#45100D"></path>
                            <path d="M16.4504777,14.9312222 C12.4214563,11.6127723 -0.0119179808,13.7665161 0.00618184585,15.9599658 C-0.287035345,13.5776123 9.93454007,8.02961649 12.8015526,9.11370763" id="Fill-119" fill="#45100D"></path>
                            <path d="M24.2354544,21.3409562 C19.0926903,22.2686302 12.7203447,33.128793 14.4108685,34.5317344 C12.3969612,33.2166272 14.7426987,21.8499135 17.4226797,20.3663571" id="Fill-121" fill="#45100D"></path>
                            <path d="M54.9626854,5.75675504 C53.8030899,-1.49979731 42.4339854,-0.536027048 27.8515584,1.36624608 C15.0923873,3.02908066 7.47598029,6.38723646 9.37163547,15.3691902 C11.2672906,24.351144 22.6146753,35.8887133 35.203708,33.2332315 C47.7939474,30.5789528 55.8604368,11.3757402 54.9626854,5.75675504" id="Fill-123" fill="#45100D"></path>
                            <path d="M53.611111,3.31977591 C48.9775554,1.51977553 11.6183066,4.85386715 13.0976658,11.8637617 C14.5758183,18.872453 24.3400714,28.2671074 35.5281776,25.9076149 C46.7150771,23.5481225 57.5544599,4.85146073 53.611111,3.31977591" id="Fill-125" fill="#FFFFFF"></path>
                        </g>
                        <g id="Group-137" transform="translate(54.054903, 122.266062)">
                            <g id="Group-130">
                                <mask id="mask-18" fill="white">
                                    <use xlink:href="#path-17"></use>
                                </mask>
                                <g id="Clip-129"></g>
                                <path d="M29.7421056,9.36411263 C29.0305347,2.88565929 23.2258045,-1.79242029 16.7758364,-1.08504453 C10.3258683,-0.377668764 5.67412421,5.44763693 6.38569512,11.9248852 C7.09726602,18.4033385 12.9032022,23.0814181 19.3519643,22.3740423 C25.8019324,21.6666666 30.4536765,15.8413609 29.7421056,9.36411263" id="Fill-128" fill="#40738C" mask="url(#mask-18)"></path>
                            </g>
                            <g id="Group-133">
                                <mask id="mask-20" fill="white">
                                    <use xlink:href="#path-19"></use>
                                </mask>
                                <g id="Clip-132"></g>
                                <path d="M23.9510038,9.99834067 C23.5928063,6.73380755 20.6657172,4.37548665 17.4141999,4.7321872 C14.1626827,5.08888776 11.8181169,8.02443692 12.1763144,11.2901751 C12.535718,14.5559133 15.4616011,16.9130291 18.7131183,16.5563286 C21.9646356,16.199628 24.3092014,13.2640789 23.9510038,9.99834067" id="Fill-131" fill="#000000" mask="url(#mask-20)"></path>
                            </g>
                            <g id="Group-136">
                                <mask id="mask-22" fill="white">
                                    <use xlink:href="#path-21"></use>
                                </mask>
                                <g id="Clip-135"></g>
                                <path d="M28.973006,9.64525533 C28.69682,7.1338906 26.4463262,5.31905602 23.9449736,5.59501692 C21.4436209,5.86856769 19.6405726,8.12686783 19.9167586,10.6382325 C20.1917386,13.1508023 22.4434384,14.9644319 24.944791,14.6908811 C27.4449376,14.4161253 29.249192,12.1578251 28.973006,9.64525533" id="Fill-134" fill="#FFFFFF" mask="url(#mask-22)"></path>
                            </g>
                        </g>
                        <g id="Group-148" transform="translate(12.122403, 43.476063)">
                            <path d="M8.94367831,108.180676 L13.1177152,81.6658219 C15.2753266,67.9544434 19.7558697,62.7119994 33.3254113,57.5623953 C45.2912249,53.0192654 67.880982,54.8230133 67.880982,54.8230133 C72.1600033,54.5734306 81.6158439,58.6800921 83.2968017,64.4385817 C85.6161133,72.3878534 88.1791819,83.3731127 88.1398185,93.0007382 C88.1345334,94.3234064 88.0802311,95.6195488 87.969213,96.8795198 C87.1631256,99.8636617 85.403731,100.55333 83.7493209,101.669821 C46.9166738,126.515967 9.77872702,111.807464 9.48911475,111.313121 C8.96901939,110.422098 8.77111767,109.281493 8.94367831,108.180676 M113.427338,63.1665535 C114.620782,57.2886983 123.701334,52.4079684 127.985182,52.2994542 C127.985182,52.2994542 150.346869,48.6208211 162.649357,52.1499456 C176.601428,56.1517101 181.504322,61.0022971 184.798662,74.4870013 L191.171339,100.56177 C191.43561,101.643295 191.333039,102.797164 190.888967,103.727975 C190.64159,104.24402 154.859994,121.996952 116.082117,100.304953 C114.340824,99.3307362 112.530747,98.7893706 111.478489,95.8848059 C111.262487,94.6380977 111.09958,93.3491895 110.984941,92.03255 C110.141446,82.4423016 111.778962,71.2810081 113.427338,63.1665535 M0.420630551,118.030153 C2.03280552,120.906986 25.7472236,122.616689 36.2118802,122.992871 C38.5951479,123.078477 47.8748077,122.271855 51.0158941,121.750986 C83.8627524,116.301159 91.4505939,101.514284 91.8874257,96.9518627 C92.2844359,92.8343497 92.2084126,88.7023682 91.8548443,84.6451409 C91.8644981,84.6463466 91.8753585,84.6463466 91.8850123,84.6475523 C91.8910459,84.741598 91.8994929,84.8332323 91.9043198,84.927278 C94.2344918,85.285375 96.6672349,85.268495 99.1096317,85.0611122 C101.657013,85.0791979 104.181467,84.901958 106.561114,84.3304496 C106.557494,84.2267582 106.557494,84.1242725 106.55508,84.0217868 C106.564734,84.0193754 106.575595,84.0181697 106.585248,84.0157582 C106.570768,88.0874541 106.839866,92.213407 107.578377,96.2826914 C108.396532,100.792061 117.191091,114.895297 150.378244,117.590067 C153.551912,117.84809 162.866566,117.878233 165.235353,117.593685 C175.63002,116.345771 199.121196,112.667138 200.4872,109.66491 C202.045073,106.246711 194.880789,77.9811602 194.880789,77.9811602 C190.525745,61.0131485 186.654594,49.4431179 167.612587,46.2648561 C147.143033,42.8478629 126.767603,47.2692158 126.767603,47.2692158 C119.353529,47.4524843 111.303515,52.0655457 109.231581,61.6859369 C108.015209,67.3371179 106.981052,73.7925101 106.674546,80.4950737 L106.243747,80.5686222 C103.809797,80.9870049 101.351713,81.4005648 98.9696524,81.618799 C96.6612013,81.5862447 94.2731068,81.3873019 91.9055265,81.1799192 L91.4711081,81.1437477 C90.6070981,74.4918242 89.0371583,68.1437405 87.353787,62.6143366 C84.4866255,53.1989167 76.0782159,49.2731123 68.6750023,49.708375 C68.6750023,49.708375 48.0015131,47.0003416 27.8891476,52.1101571 C9.17898828,56.864287 6.28648574,68.7164546 3.36260853,85.9895119 C3.36260853,85.9895119 -1.41720065,114.751817 0.420630551,118.030153" id="Fill-138" fill="#231F20"></path>
                            <path d="M21.6879456,17.597923 C23.5499111,18.5058256 26.0876386,17.1530146 27.3426251,14.5824326 C28.5976117,12.0118505 28.1016506,9.18324574 26.2384784,8.27413746 C24.3765128,7.3662349 21.839992,8.71904589 20.5850055,11.2896279 C19.330019,13.8590042 19.8247733,16.6900205 21.6879456,17.597923 M27.8458265,4.98374423 C31.0231144,6.53188088 31.8678169,11.3595593 29.7270995,15.7447408 C27.5863821,20.1299222 23.2590921,22.4376586 20.0805975,20.8883163 C16.9033095,19.3389739 16.0598138,14.5112955 18.2005312,10.1273197 C20.3412485,5.74213827 24.6673318,3.43440187 27.8458265,4.98374423" id="Fill-140" fill="#D28425"></path>
                            <path d="M19.124877,11.2561091 C20.8251424,7.77280162 24.2510142,5.94735078 26.7742611,7.17717896 C29.2999214,8.40821285 29.9672363,12.2291202 28.266971,15.7112219 C26.5667056,19.1957351 23.1420405,21.0223916 20.6163802,19.7913578 C18.0931333,18.5615296 17.4246116,14.7406222 19.124877,11.2561091" id="Fill-142" fill="#FBAE17"></path>
                            <path d="M167.525221,13.8147545 C169.548887,13.3686404 170.694062,10.7329498 170.077429,7.94051642 C169.460796,5.14928875 167.311632,3.23943794 165.287966,3.68555208 C163.263094,4.13166622 162.119125,6.7673568 162.735758,9.55979019 C163.352391,12.3522236 165.500348,14.2608687 167.525221,13.8147545 M164.497566,0.110610371 C167.951192,-0.651400812 171.615994,2.60523243 172.668252,7.36900804 C173.72051,12.1327836 171.766834,16.6288908 168.314414,17.390902 C164.861995,18.1517074 161.197193,14.8950742 160.144935,10.1300929 C159.092677,5.36631725 161.045146,0.872621555 164.497566,0.110610371" id="Fill-144" fill="#D28425"></path>
                            <path d="M161.571758,10.4412876 C160.735503,6.65655169 162.281308,3.09848998 165.024178,2.49322161 C167.767047,1.88915894 170.667997,4.46697526 171.504252,8.25171118 C172.339301,12.0352414 170.794702,15.5933031 168.051833,16.1985715 C165.308963,16.8026341 162.406807,14.2260235 161.571758,10.4412876" id="Fill-146" fill="#FBAE17"></path>
                        </g>
                    </g>
                </g>
            </g>
        </g>
    </g>
</svg>